<svg xmlns="http://www.w3.org/2000/svg" viewBox="0 0 64 64" role="img" aria-label="GOGO TYRE favicon">
  <defs>
    <radialGradient id="bg" cx="50%" cy="45%" r="70%">
      <stop offset="0%" stop-color="#172636"/>
      <stop offset="100%" stop-color="#05070b"/>
    </radialGradient>
    <linearGradient id="chrome" x1="16" x2="48" y1="10" y2="52">
      <stop offset="0%" stop-color="#ffffff"/>
      <stop offset="34%" stop-color="#aeb7c2"/>
      <stop offset="58%" stop-color="#f7f9fb"/>
      <stop offset="100%" stop-color="#6d7682"/>
    </linearGradient>
    <filter id="blueGlow" x="-40%" y="-40%" width="180%" height="180%">
      <feDropShadow dx="0" dy="0" stdDeviation="3" flood-color="#00a8ff" flood-opacity="0.9"/>
      <feDropShadow dx="0" dy="0" stdDeviation="6" flood-color="#0057ff" flood-opacity="0.6"/>
    </filter>
  </defs>
  <rect width="64" height="64" rx="14" fill="url(#bg)"/>
  <path d="M50 25.2C46.6 15.4 37.7 10 27.7 11.4 16.2 13 8.6 22.4 9.7 34.1c1 10.7 9.8 18.8 21.2 18.5 8.1-.2 15.5-4.3 19.2-10.7V31.5H31.4v10.2h7.1c-2 2.1-4.8 3.1-8.1 3.1-6.2 0-10.8-4.6-11.1-10.9-.4-6.8 4.2-12.3 10.8-13.1 4.7-.6 8.8 1.4 11.1 5.2l8.8-.8Z" fill="#02050a" filter="url(#blueGlow)"/>
  <path d="M47.7 24.1C44.8 16.3 37.1 12 28.2 13.2 17.6 14.7 10.7 23.1 11.7 33.9c.9 9.6 8.8 16.9 19.1 16.6 8.2-.2 15.3-4.8 18.1-11.8v-5.2H33.4v6.2h10.2c-2 4.5-6.7 7.2-12.4 7.3-7.9.2-13.6-5.4-14.2-13.1-.7-8.4 4.9-15.1 13.1-16.2 6-.8 11 1.9 13.8 7l3.8-.6Z" fill="url(#chrome)"/>
  <path d="M13 50.5h37.8" stroke="#9cff33" stroke-width="3" stroke-linecap="round"/>
  <path d="M10 50.5h25" stroke="#00a8ff" stroke-width="3" stroke-linecap="round"/>
</svg>
